<svg width="648" height="360" viewBox="0 0 648 360" fill="none" xmlns="http://www.w3.org/2000/svg">
<path d="M522.877 325.276C522.877 325.276 584.64 330.12 603.662 293.956C631.946 240.183 576.976 196.839 537.098 204.642C450.205 221.645 471.128 34.0685 331.677 72.3509C292.464 83.1149 186.52 19.1681 156.971 121.701C149.94 146.082 125.05 148.768 88.92 164.237C18.1926 194.515 50.5313 325.787 101.068 326.302C151.605 326.817 522.877 325.276 522.877 325.276Z" fill="#EBF2F9"/>
<path d="M600.586 326.495H57.7926C57.6643 326.494 57.5414 326.443 57.4507 326.352C57.36 326.262 57.3088 326.139 57.3083 326.011C57.3088 325.882 57.36 325.759 57.4507 325.669C57.5414 325.578 57.6643 325.527 57.7926 325.526H600.586C600.715 325.527 600.838 325.578 600.929 325.669C601.02 325.759 601.071 325.882 601.072 326.011C601.071 326.139 601.02 326.262 600.929 326.353C600.838 326.443 600.715 326.494 600.586 326.495Z" fill="#283250"/>
<path d="M257.672 150.644L250.546 150.48C252.835 153.448 253.35 156.18 251.924 158.493C250.499 160.851 247.09 162.792 241.997 164.262C248.171 147.734 249.458 129.779 245.705 112.54C241.953 95.3004 233.318 79.5049 220.833 67.0389C207.879 54.1 191.364 45.3125 173.396 41.797C155.427 38.2815 136.818 40.1973 119.943 47.3001C118.588 47.8851 117.232 48.4917 115.924 49.1235H115.913C111.953 47.9157 108.101 46.9257 104.38 46.1715C85.6062 42.3627 72.2844 44.9961 66.8718 53.5857C61.722 61.7577 64.5318 74.0571 74.745 88.4013C73.3662 90.9483 72.1278 93.5637 70.983 96.2727C70.119 98.3049 69.3486 100.337 68.643 102.416C49.4406 103.561 39.1626 106.941 35.4258 113.061C31.0806 120.186 37.0134 129.747 56.0052 139.044C58.6206 140.33 61.425 141.591 64.368 142.853C65.3527 151.475 67.5789 159.91 70.9776 167.895C77.9874 184.489 89.7128 198.661 104.7 208.655C119.688 218.649 137.279 224.026 155.293 224.118C173.307 224.21 190.951 219.013 206.04 209.173C221.129 199.332 232.999 185.281 240.178 168.759C249.538 166.82 255.712 163.784 258.165 159.759C259.866 156.998 259.657 153.914 257.672 150.644ZM235.69 165.711C229.453 166.833 221.674 167.486 212.587 167.58C198.486 167.76 182.293 166.638 165.227 164.388C166.667 161.268 168.073 158.061 169.443 154.766C174.466 156.468 179.588 157.862 184.781 158.94C190.395 160.081 195.52 160.643 200.093 160.643C210.814 160.643 218.497 157.548 222.289 151.526C222.914 150.534 223.426 149.477 223.816 148.372H218.351C218.259 148.538 218.171 148.701 218.063 148.862C215.244 153.336 208.948 155.646 200.106 155.644C195.878 155.644 191.063 155.117 185.773 154.042C180.888 153.029 176.068 151.726 171.338 150.138C172.658 146.845 173.935 143.493 175.169 140.083C178.501 130.903 181.352 121.791 183.659 113.047C194.173 114.599 205.459 115.376 217.451 115.376C224.915 115.376 232.649 115.076 240.653 114.476C241.846 120.276 242.445 126.183 242.44 132.105C242.464 143.646 240.168 155.074 235.69 165.711ZM121.826 211.32C119.169 210.357 117.819 206.541 117.155 203.51C116.105 198.722 115.916 191.99 116.606 184.055C116.955 180.041 117.517 175.775 118.273 171.309C129.256 174.243 140.014 177.966 150.462 182.448C148.095 186.528 145.703 190.312 143.311 193.741C138.751 200.275 134.294 205.317 130.419 208.321C127.966 210.229 124.484 212.292 121.826 211.32ZM152.869 178.182C141.932 173.462 130.66 169.557 119.147 166.5C119.551 164.429 119.992 162.321 120.47 160.178C123.646 160.898 126.865 161.596 130.127 162.272C139.667 164.223 149.188 165.881 158.504 167.222C156.66 171.044 154.781 174.697 152.869 178.182ZM132.23 158.819C128.543 158.06 124.913 157.268 121.338 156.445C123.019 149.452 125.084 142.158 127.496 134.73C140.027 142.432 152.771 148.698 164.837 153.146C163.322 156.76 161.77 160.276 160.18 163.694C151.02 162.38 141.638 160.749 132.23 158.819ZM101.63 64.4037C102.639 66.4567 103.77 68.4474 105.017 70.3653C111.353 80.1555 119.72 87.2529 125.624 91.4811C129.091 93.9583 132.713 96.2134 136.465 98.2329C132.966 105.858 129.625 113.997 126.565 122.448C125.995 124.024 125.438 125.597 124.895 127.166C106.583 115.25 91.08 101.576 80.9154 88.3419C83.4619 83.9943 86.381 79.8761 89.64 76.0335C90.9936 74.4441 92.3958 72.9033 93.8682 71.4075L94.4748 70.8009C96.7389 68.5397 99.1251 66.4041 101.623 64.4037H101.63ZM179.91 51.1989C182.569 52.1619 183.917 55.9779 184.59 59.0091C185.639 63.7971 185.828 70.5291 185.13 78.4635C184.374 87.1521 182.633 97.0197 180.045 107.528C176.918 106.989 173.866 106.379 170.888 105.698C160.612 103.334 151.243 100.101 142.877 96.0405C147.868 85.6293 153.148 76.3431 158.425 68.7777C162.985 62.2437 167.443 57.2019 171.319 54.1977C173.34 52.6317 176.062 50.9577 178.445 50.9577C178.941 50.9527 179.435 51.0343 179.903 51.1989H179.91ZM169.47 110.37C172.516 111.078 175.639 111.709 178.841 112.262C176.593 120.722 173.826 129.524 170.6 138.416C169.358 141.843 168.074 145.212 166.747 148.523C154.633 144.075 141.775 137.723 129.127 129.857C129.781 127.948 130.455 126.032 131.15 124.11C134.147 115.85 137.398 107.899 140.809 100.452C149.4 104.618 158.974 107.937 169.456 110.37H169.47ZM217.062 70.8009C227.848 81.5459 235.601 94.9527 239.533 109.661C219.553 111.121 201.247 110.662 184.882 108.293C187.479 97.6839 189.227 87.7011 189.994 78.8847C190.84 69.1485 190.737 57.6177 186.79 51.1269C187.704 51.4869 188.615 51.8469 189.522 52.2303C199.816 56.5736 209.166 62.8814 217.048 70.8009H217.062ZM155.776 45.4083C161.715 45.4018 167.64 46.0049 173.457 47.2083C166.649 50.1711 159.698 58.4205 154.42 65.9859C149.02 73.7259 143.62 83.2011 138.533 93.8067C135.169 91.9859 131.917 89.9657 128.794 87.7569C118.665 80.5713 112.594 73.0455 109.289 67.9983C107.897 65.892 106.662 63.6858 105.595 61.3977C109.154 58.8664 112.899 56.607 116.798 54.6387C118.39 53.8347 120.01 53.0811 121.658 52.3779L122.018 52.2249L122.101 52.1889C122.452 52.0413 122.804 51.8961 123.158 51.7533L123.442 51.6399C133.719 47.5016 144.697 45.3857 155.776 45.4083ZM71.1 56.2551C73.9188 51.7821 80.2152 49.4745 89.0568 49.4745C93.2868 49.4745 98.1 50.0019 103.39 51.0765C105.399 51.4833 107.448 51.9633 109.537 52.5165C102.644 56.5079 96.3076 61.3921 90.693 67.0425C89.5014 68.2107 88.353 69.4257 87.2352 70.6875C85.833 72.2283 84.5028 73.8411 83.2176 75.4755C81.1732 78.0898 79.2703 80.8117 77.517 83.6295C69.7032 72.0321 67.3542 62.1951 71.1 56.2551ZM75.888 98.3643C76.6584 96.5895 77.4522 94.8381 78.3162 93.1317C89.0226 106.513 104.801 120.193 123.241 132.059C120.625 140.015 118.395 147.836 116.595 155.329C103.181 152.089 90.7488 148.412 79.8552 144.48C77.5656 143.663 75.3552 142.823 73.2204 141.982C71.9604 141.491 70.722 140.978 69.507 140.463C69.327 138.594 69.1794 136.703 69.1326 134.809C69.1092 133.898 69.0858 133.009 69.0858 132.109C69.0858 131.058 69.1092 129.983 69.1326 128.932C69.4274 121.127 70.7628 113.397 73.1034 105.946C73.5012 104.686 73.9224 103.446 74.3886 102.209C74.8584 100.911 75.348 99.6261 75.8862 98.3643H75.888ZM60.2586 136.301C43.6986 128.219 36.1278 120.416 39.5154 114.881C42.2478 110.396 52.1982 107.359 67.4298 106.241C65.5642 112.574 64.4045 119.093 63.972 125.681C63.8316 127.643 63.7614 129.605 63.738 131.592V132.105C63.738 134.085 63.8082 136.076 63.918 138.045C62.6634 137.469 61.4502 136.884 60.2586 136.301ZM72.8262 146.228C75.0672 147.071 77.3568 147.911 79.7166 148.728C90.5616 152.487 102.721 155.979 115.717 159.078C115.245 161.187 114.809 163.263 114.41 165.306C113.348 165.05 112.285 164.799 111.22 164.554C93.24 160.463 79.7562 159.629 73.5012 159.489C71.9529 154.826 70.8122 150.037 70.092 145.177L72.8262 146.228ZM75.8862 165.828C75.69 165.364 75.501 164.9 75.3138 164.433C81.9738 164.702 94.3488 165.711 110.146 169.308C111.276 169.565 112.405 169.832 113.533 170.109C112.72 174.85 112.12 179.382 111.749 183.641C111.049 191.709 110.999 201.013 113.249 207.657C96.528 198.209 83.3941 183.505 75.8862 165.828ZM189.508 211.964C170.466 219.984 149.191 220.964 129.492 214.729C135.904 211.368 142.348 203.65 147.312 196.536C149.872 192.868 152.428 188.809 154.953 184.428C169.612 191.078 183.58 199.157 196.654 208.548C194.332 209.796 191.95 210.935 189.508 211.964ZM217.048 193.392C212.3 198.16 207.009 202.355 201.283 205.889C187.549 195.84 172.826 187.219 157.342 180.16C159.457 176.288 161.539 172.197 163.573 167.92C177.644 169.785 191.173 170.904 203.522 171.194C206.746 171.286 209.876 171.286 212.913 171.263C220.786 171.171 227.794 170.703 233.793 169.862C229.576 178.592 223.914 186.547 217.048 193.392Z" fill="#ADCBF9"/>
<path d="M433.679 139.219C433.679 139.219 451.01 156.272 451.802 162.703C452.594 169.135 443.941 179.193 443.941 179.193L433.679 139.219Z" fill="#851A99"/>
<path d="M427.426 316.351C427.426 316.351 426.863 325.418 425.11 325.547C424.876 325.564 416.212 325.564 416.212 325.564L405.155 325.501C405.155 325.501 405.227 322.835 408.46 322.271C411.692 321.708 417.1 319.436 419.06 315.165C421.121 310.679 427.426 316.351 427.426 316.351Z" fill="#163560"/>
<path d="M452.057 316.351C452.057 316.351 451.496 325.418 449.741 325.547C449.509 325.564 440.845 325.564 440.845 325.564L429.786 325.501C429.786 325.501 429.858 322.835 433.091 322.271C436.324 321.708 441.731 319.436 443.693 315.165C445.752 310.679 452.057 316.351 452.057 316.351Z" fill="#163560"/>
<path d="M415.177 218.912C415.177 218.912 418.07 237.41 428.857 270.248C439.645 303.085 441.117 317.305 441.117 317.305L452.691 316.981C452.691 316.981 452.79 281.093 447.817 264.581C442.843 248.07 446.737 205.05 446.737 205.05L415.177 218.912Z" fill="#163560"/>
<path d="M409.545 206.063C409.545 206.063 409.137 233.94 413.959 268.163C418.781 302.387 417.147 316.918 417.147 316.918L428.699 317.302C428.699 317.302 435.6 283.066 433.62 265.935C431.64 248.804 443.072 207.149 443.072 207.149L409.545 206.063Z" fill="#1C468A"/>
<path d="M431.908 140.83L426.459 144.865L418.584 143.207C418.694 142.487 419.214 139.512 419.688 136.817C419.715 136.659 419.744 136.499 419.771 136.344C420.176 134.051 420.527 132.08 420.527 132.08L427.882 128.415L430.623 127.049C430.623 127.096 430.411 129.594 430.382 129.958C429.867 136.439 431.908 140.83 431.908 140.83Z" fill="#FFB27D"/>
<path d="M419.135 138.793C419.315 138.719 429.847 135.611 430.992 135.989C432.137 136.367 432.815 138.581 432.815 138.581L415.577 142.478C415.577 142.478 416.934 139.72 419.135 138.793Z" fill="#851A99"/>
<path d="M447.514 209.505C445.729 217.654 415.998 218.62 408.335 211.222C407.464 210.38 407.421 206.458 407.749 201.167C408.393 190.834 410.458 175.289 410.537 167.347C410.576 163.511 411.104 159.589 411.797 156.027C412.709 151.421 413.973 146.892 415.577 142.478C415.577 142.478 430.097 137.784 432.815 138.581C445.905 142.428 449.302 201.355 447.514 209.505Z" fill="#B24CC5"/>
<path d="M407.749 201.168C408.393 190.834 410.458 175.289 410.537 167.347C410.576 163.512 411.104 159.589 411.797 156.027L420.532 154.486C420.532 154.486 429.082 189.369 407.749 201.168Z" fill="#851A99"/>
<path d="M412.479 186.763C412.479 186.763 413.075 188.187 411.824 189.143C410.573 190.099 409.763 191.647 410.049 192.777C410.335 193.907 413.078 195.754 414.029 195.457C414.979 195.16 416.909 193.668 416.707 193.072C416.506 192.476 418.009 187.834 415.69 186.052C413.372 184.27 412.479 186.763 412.479 186.763Z" fill="#FFB27D"/>
<path d="M422.23 140.67C422.23 140.67 413.728 141.982 406.94 151.985C400.153 161.987 395.687 169.427 396.936 173.032C398.185 176.638 409.585 189.14 411.55 189.14C413.516 189.14 416.686 187.711 416.864 184.496C416.864 184.496 408.839 172.469 410.42 170.669C411.097 169.898 420.838 161.989 422.23 165.562C424.532 171.473 422.23 140.67 422.23 140.67Z" fill="#B24CC5"/>
<path d="M429.829 130.073C428.209 133.162 422.197 135.833 419.688 136.818C419.715 136.659 419.744 136.499 419.771 136.344C420.176 134.051 420.527 132.08 420.527 132.08L427.882 128.415C429.507 128.39 430.497 128.8 429.829 130.073Z" fill="#FCA56B"/>
<path d="M416.954 131.649C416.954 131.649 430.222 135.789 432.671 127.486C435.121 119.182 438.48 114.119 430.117 111.133C421.754 108.147 419.161 110.82 417.668 113.392C416.176 115.964 413.564 130.359 416.954 131.649Z" fill="#FFB27D"/>
<path d="M419.749 112.908C419.749 112.908 420.516 122.876 422.521 122.426C424.526 121.976 426.346 121.64 426.028 124.648C425.709 127.655 422.904 131.153 429.071 131.632C435.238 132.11 444.245 115.642 442.571 112.552C437.76 103.638 412.769 102.043 419.749 112.908Z" fill="#163560"/>
<path d="M513.376 204.006C513.376 204.006 508.288 205.313 505.051 204.337C501.815 203.361 496.249 204.963 495.353 206.137C494.456 207.311 494.786 207.786 496.386 208.193C497.986 208.599 503.654 211.019 507.379 209.618C511.103 208.218 515.963 208.178 515.963 208.178L513.376 204.006Z" fill="#E49963"/>
<path d="M557.357 159.798C557.357 159.798 551.641 200.43 542.174 204.078C537.503 205.879 516.861 209.945 510.754 210.353C510.754 210.353 509.258 209.14 509.623 204.201C509.623 204.201 531.25 196.261 534.323 191.943C538.897 185.517 531.484 165.688 537.223 159.653C542.961 153.617 552.623 151.02 557.357 159.798Z" fill="#4A75CB"/>
<path d="M556.626 316.439V307.504H570.575C570.756 307.504 570.93 307.432 571.058 307.303C571.186 307.175 571.258 307.002 571.259 306.82V305.4C571.258 305.219 571.186 305.045 571.058 304.917C570.93 304.789 570.756 304.717 570.575 304.716H556.626V254.278C556.625 253.597 556.353 252.944 555.871 252.462C555.389 251.98 554.736 251.708 554.054 251.706H551.295C550.613 251.707 549.959 251.979 549.477 252.461C548.995 252.943 548.723 253.596 548.721 254.278V304.707H534.78C534.599 304.708 534.425 304.78 534.297 304.908C534.168 305.036 534.096 305.21 534.096 305.391V306.811C534.096 306.993 534.168 307.166 534.297 307.294C534.425 307.423 534.599 307.495 534.78 307.495H548.726V316.439C538.635 317.203 530.546 320.837 528.282 325.531H577.08C574.803 320.828 566.719 317.194 556.626 316.439Z" fill="#2B478B"/>
<path d="M555.431 245.401C553.756 248.188 551.892 250.858 549.851 253.391C543.708 261.147 537.019 267.542 535.855 273.589C535.589 274.903 535.228 276.197 534.775 277.459C534.287 278.843 533.686 280.299 532.991 281.804C530.384 287.467 526.486 293.813 522.592 299.582C515.862 309.554 509.533 317.876 509.533 317.876L497.929 317.381C498.393 316.218 503.455 302.441 510.226 285.622C512.977 278.782 515.9 271.526 518.72 264.518L519.84 261.719C520.704 259.576 521.552 257.464 522.38 255.409L533.803 227.028C533.803 227.028 559.215 217.402 561.854 223.639C564.028 228.79 562.255 233.828 555.431 245.401Z" fill="#163560"/>
<path d="M509.166 315.765C509.166 315.765 508.597 325.388 506.745 325.526C506.498 325.544 485.55 325.526 485.55 325.526C485.55 325.526 485.717 322.616 489.132 322.02C492.547 321.424 498.262 319.026 500.33 314.512C502.506 309.765 509.166 315.765 509.166 315.765Z" fill="#163560"/>
<path d="M536.04 288.406C536.04 288.406 544.111 293.594 543.328 295.279C543.224 295.502 538.763 303.492 538.763 303.492L533.003 313.658C533.003 313.658 530.584 312.218 531.729 308.948C532.874 305.677 533.565 299.516 530.633 295.511C527.553 291.295 536.04 288.406 536.04 288.406Z" fill="#163560"/>
<path d="M525.319 222.355C525.319 222.355 493.22 242.335 489.659 255.688C486.099 269.04 532.091 297.523 532.091 297.523C532.091 297.523 537.131 293.074 538.031 289.809C538.031 289.809 517.241 264.904 512.732 259.32C509.962 255.891 553.682 247.451 559.022 239.142C564.363 230.833 562.442 223.842 562.442 223.842L525.319 222.355Z" fill="#1C468A"/>
<path d="M585.315 247.98H520.034C518.723 247.98 517.66 249.043 517.66 250.355V263.41C517.66 264.721 518.723 265.784 520.034 265.784H585.315C586.626 265.784 587.689 264.721 587.689 263.41V250.355C587.689 249.043 586.626 247.98 585.315 247.98Z" fill="#B24CC5"/>
<path d="M555.316 152.133C555.316 152.133 542.649 159.214 535.007 157.237C536.344 155.485 537.991 153.993 539.867 152.835C539.699 152.091 539.553 151.395 539.427 150.739C538.697 147.008 538.565 144.837 538.565 144.837L544.401 139.617L548.325 140.449C548.4 140.834 548.483 141.208 548.577 141.576C550.398 148.828 555.316 152.133 555.316 152.133Z" fill="#E49963"/>
<path d="M563.409 188.914C562.314 203.636 563.754 226.024 562.509 229.901C561.429 233.248 549.227 231.259 544.352 230.143C542.552 229.729 540.363 229.138 538.108 228.44C531.808 226.49 524.954 223.708 524.217 221.641C524.19 221.564 524.168 221.484 524.151 221.404C524.138 221.351 524.129 221.299 524.122 221.249C524.092 221.012 524.106 220.773 524.163 220.541C524.408 219.488 525.353 218.349 525.465 215.741C525.589 212.83 525.571 209.401 525.681 205.715C525.681 205.299 525.692 204.845 525.737 204.433V204.282V204.046C525.843 199.935 526.059 195.611 526.307 191.326C526.466 188.626 526.649 185.965 526.86 183.406C527.409 176.81 528.149 170.946 529.128 167.24C530.728 161.195 534.256 157.253 537.469 154.364L539.791 152.372C542.383 152.939 545.448 152.563 548.22 151.249C551.219 149.825 552.256 148.804 552.778 149.189C559.717 154.537 564.701 170.917 563.409 188.914Z" fill="#739AF0"/>
<path d="M538.112 228.44C531.812 226.491 524.957 223.708 524.221 221.641C524.194 221.564 524.171 221.485 524.154 221.404C524.153 221.351 524.144 221.299 524.126 221.249C524.096 221.013 524.11 220.773 524.167 220.542C524.412 219.489 525.357 218.349 525.468 215.741C525.593 212.83 525.575 209.401 525.684 205.715C525.684 205.299 525.695 204.846 525.74 204.433V204.282V204.046L549.518 193.263C549.518 193.263 550.895 212.422 538.112 228.44Z" fill="#4A75CB"/>
<path d="M548.577 141.566C547.713 143.75 545.126 148.898 539.427 150.746C538.697 147.015 538.565 144.844 538.565 144.844L544.401 139.624L548.325 140.456C548.4 140.825 548.483 141.199 548.577 141.566Z" fill="#D68D5D"/>
<path d="M536.258 144.781C536.258 144.781 548.779 146.192 549.538 138.38C550.298 130.568 552.427 125.49 544.464 124.257C536.501 123.024 534.654 125.855 533.767 128.397C532.879 130.939 533.02 144.212 536.258 144.781Z" fill="#E49963"/>
<path d="M549.486 138.92C549.486 138.92 548.69 128.55 537.293 127.476C529.484 126.741 533.839 120.02 534.67 118.949C534.67 118.949 540.652 119.77 546.784 120.783C559.652 122.909 550.75 137.306 549.486 138.92Z" fill="#2B478B"/>
<path d="M519.395 211.973L488.367 212.638L479.545 185.486L478.449 185.843L487.775 214.544L519.437 213.867L519.395 211.973Z" fill="#4A75CB"/>
<path d="M515.995 210.253C515.995 210.253 511.081 212.112 507.758 211.5C504.436 210.888 499.079 213.093 498.317 214.364C497.556 215.635 497.934 216.065 499.577 216.294C501.221 216.522 507.112 218.301 510.662 216.499C514.211 214.697 519.034 214.11 519.034 214.11L515.995 210.253Z" fill="#E49963"/>
<path d="M554.834 161.46C554.834 161.46 553.631 202.473 544.624 207.133C540.18 209.434 520.112 215.755 514.089 216.835C514.089 216.835 512.469 215.793 512.289 210.845C512.289 210.845 532.91 200.569 535.487 195.937C539.323 189.047 529.771 170.156 534.809 163.525C539.847 156.893 549.162 153.257 554.834 161.46Z" fill="#739AF0"/>
<path d="M215.082 165.004L202.358 316.304C202.358 316.304 201.024 325.484 207.846 325.484C219.064 325.511 263.677 325.484 263.677 325.484C263.677 325.484 255.235 323.575 255.337 319.28C255.458 314.216 270.209 163.565 270.209 163.565L215.082 165.004Z" fill="#851A99"/>
<path d="M267.3 322.74C265.093 322.74 222.48 322.881 211.559 322.74C206.798 322.681 205.963 318.507 205.924 315.807C205.91 315.053 205.959 314.299 206.069 313.553L206.401 309.622L207.243 299.598L207.988 290.743L208.946 279.364L209.752 269.761L218.794 162.25L273.92 160.821C273.92 160.821 267.707 223.868 263.313 269.761C262.822 274.873 262.355 279.776 261.923 284.353C261.783 285.814 261.648 287.241 261.518 288.634C261.11 292.975 260.737 296.962 260.413 300.483C260.233 302.339 260.086 304.063 259.943 305.642C259.382 311.832 259.054 315.783 259.043 316.536C259.04 316.946 259.076 317.356 259.151 317.76C260.057 322.589 266.468 322.74 267.3 322.74Z" fill="#B24CC5"/>
<path d="M81.2034 82.6719L112.199 207.174L116.444 224.224L130.88 282.213H399.076L345.868 82.6719H81.2034Z" fill="#D778E9"/>
<path d="M81.2034 82.6719L76.9086 84.1047L125.168 286.545L130.88 282.214L81.2034 82.6719Z" fill="#B24CC5"/>
<path d="M125.168 286.545H391.716L399.076 282.214H130.88L125.168 286.545Z" fill="#851A99"/>
<path d="M276.484 322.807H218.772V325.55H276.484V322.807Z" fill="#D778E9"/>
<path d="M386.084 245.444L342.565 85.3107H80.775V82.6719H345.868L389.241 245.089L386.084 245.444Z" fill="#D778E9"/>
<path d="M261.812 286.544L261.515 288.641L207.239 299.605L207.984 290.751L208.339 286.544H261.812Z" fill="#851A99"/>
<path opacity="0.4" d="M267.3 322.74C265.093 322.74 222.48 322.88 211.559 322.74C206.798 322.68 205.963 318.506 205.924 315.806L259.943 305.642C259.382 311.832 259.054 315.783 259.043 316.535C259.04 316.946 259.076 317.356 259.151 317.759C260.057 322.589 266.468 322.74 267.3 322.74Z" fill="#851A99"/>
<path opacity="0.4" d="M248.693 241.819L130.88 282.214L116.444 224.224L248.693 241.819Z" fill="#851A99"/>
<path d="M81.2034 82.6719H345.868L388.811 243.041H119.765L81.2034 82.6719Z" fill="#699DEE"/>
<path d="M270.777 268.616C273.176 265.973 272.519 261.47 269.311 258.557C266.102 255.645 261.556 255.426 259.158 258.069C256.759 260.711 257.416 265.215 260.624 268.127C263.833 271.039 268.378 271.258 270.777 268.616Z" fill="#851A99"/>
<path d="M376.328 236.092H128.522L100.458 124.295L98.307 115.722L96.471 108.41L92.1672 91.2637H336.402L341.127 108.41L343.143 115.722L345.506 124.295L376.328 236.092Z" fill="#E9F3FE"/>
<path d="M341.127 108.41H96.471L92.1672 91.2637H336.402L341.127 108.41Z" fill="#AFCDFB"/>
<path d="M103.88 96.8691C102.695 96.8691 101.975 97.8285 102.271 99.0129C102.566 100.197 103.765 101.16 104.949 101.16C106.133 101.16 106.853 100.199 106.558 99.0166C106.263 97.834 105.064 96.8691 103.88 96.8691Z" fill="#E9F3FE"/>
<path d="M111.002 96.8691C109.818 96.8691 109.098 97.8285 109.393 99.0129C109.688 100.197 110.88 101.16 112.071 101.16C113.263 101.16 113.974 100.199 113.679 99.0166C113.384 97.834 112.185 96.8691 111.002 96.8691Z" fill="#E9F3FE"/>
<path d="M121.349 99.0129C121.053 97.8285 119.855 96.8691 118.67 96.8691C117.486 96.8691 116.766 97.8285 117.061 99.0129C117.356 100.197 118.555 101.16 119.739 101.16C120.924 101.16 121.644 100.196 121.349 99.0129Z" fill="#E9F3FE"/>
<path d="M298.681 158.495C296.892 151.32 289.593 145.482 282.411 145.482C278.948 145.482 275.998 146.818 274.101 149.244C272.121 151.764 271.534 155.147 272.432 158.748C274.221 165.925 281.52 171.762 288.702 171.762C292.165 171.762 295.117 170.427 297.013 168C298.98 165.473 299.58 162.096 298.681 158.495ZM296.183 167.352C294.491 169.512 291.834 170.711 288.702 170.711C281.972 170.711 275.132 165.23 273.453 158.495C272.634 155.213 273.159 152.159 274.93 149.891C276.622 147.731 279.279 146.534 282.411 146.534C289.141 146.534 295.981 152.013 297.661 158.748C298.48 162.03 297.954 165.086 296.183 167.352Z" fill="#D778E9"/>
<path d="M287.208 161.56L285.899 152.412L285.797 152H282.112L282.217 152.412L285.469 161.56H287.208Z" fill="#D778E9"/>
<path d="M285.064 163.175L285.891 166.485H289.242L288.418 163.175H285.064Z" fill="#D778E9"/>
<path d="M306.68 189.57C304.891 182.395 297.594 176.558 290.41 176.558C286.947 176.558 283.997 177.893 282.101 180.32C280.121 182.84 279.533 186.224 280.431 189.825C282.22 197 289.519 202.838 296.701 202.838C300.164 202.838 303.116 201.502 305.012 199.076C306.986 196.548 307.579 193.172 306.68 189.57ZM304.184 198.428C302.492 200.588 299.833 201.786 296.701 201.786C289.973 201.786 283.131 196.307 281.451 189.57C280.632 186.288 281.158 183.234 282.929 180.968C284.621 178.808 287.278 177.609 290.41 177.609C297.14 177.609 303.982 183.088 305.662 189.825C306.479 193.107 305.955 196.161 304.184 198.428Z" fill="#D778E9"/>
<path d="M295.207 192.635L293.898 183.489L293.796 183.075H290.113L290.216 183.489L293.468 192.635H295.207Z" fill="#D778E9"/>
<path d="M293.063 194.25L293.889 197.562H297.243L296.417 194.25H293.063Z" fill="#D778E9"/>
<path d="M334.104 154.499C334.919 154.499 335.419 153.833 335.216 153.019C335.102 152.61 334.861 152.247 334.529 151.981C334.197 151.715 333.79 151.56 333.366 151.538H306.994C306.18 151.538 305.68 152.204 305.881 153.019C305.996 153.429 306.236 153.792 306.568 154.057C306.9 154.323 307.307 154.477 307.732 154.499H334.104Z" fill="#AFCDFB"/>
<path d="M330.84 133.464C330.726 133.054 330.486 132.691 330.154 132.425C329.822 132.159 329.414 132.004 328.99 131.982H302.618C301.803 131.982 301.302 132.648 301.506 133.464C301.62 133.873 301.861 134.236 302.193 134.501C302.525 134.767 302.931 134.922 303.356 134.943H329.728C330.541 134.943 331.042 134.279 330.84 133.464Z" fill="#AFCDFB"/>
<path d="M335.52 160.14C336.334 160.14 336.834 159.474 336.631 158.66C336.517 158.25 336.277 157.887 335.944 157.621C335.612 157.355 335.205 157.2 334.78 157.179H308.4C307.586 157.179 307.086 157.845 307.289 158.66C307.403 159.07 307.644 159.433 307.976 159.698C308.308 159.964 308.715 160.118 309.139 160.14H335.52Z" fill="#AFCDFB"/>
<path d="M338.028 164.301C337.914 163.891 337.674 163.528 337.342 163.262C337.01 162.996 336.603 162.841 336.179 162.819H309.807C308.992 162.819 308.491 163.485 308.695 164.301C308.809 164.71 309.049 165.073 309.382 165.339C309.714 165.604 310.121 165.759 310.545 165.78H336.917C337.731 165.779 338.231 165.114 338.028 164.301Z" fill="#AFCDFB"/>
<path d="M342.103 185.579C342.918 185.579 343.419 184.911 343.215 184.098C343.101 183.688 342.861 183.325 342.529 183.059C342.197 182.793 341.79 182.638 341.365 182.616H315C314.187 182.616 313.686 183.284 313.89 184.098C314.004 184.507 314.243 184.87 314.575 185.136C314.907 185.402 315.314 185.557 315.738 185.579H342.103Z" fill="#AFCDFB"/>
<path d="M343.51 191.217C344.324 191.217 344.824 190.549 344.621 189.735C344.507 189.326 344.267 188.962 343.936 188.696C343.604 188.431 343.197 188.276 342.772 188.254H316.401C315.585 188.254 315.085 188.92 315.288 189.735C315.403 190.145 315.643 190.508 315.975 190.774C316.307 191.04 316.714 191.195 317.139 191.217H343.51Z" fill="#AFCDFB"/>
<path d="M346.029 195.376C345.914 194.966 345.674 194.603 345.342 194.337C345.01 194.071 344.603 193.917 344.178 193.895H317.806C316.991 193.895 316.492 194.561 316.694 195.376C316.809 195.785 317.049 196.148 317.381 196.414C317.713 196.679 318.12 196.834 318.544 196.856H344.916C345.732 196.856 346.23 196.199 346.029 195.376Z" fill="#AFCDFB"/>
<path d="M329.729 127.239L327.888 119.859C327.551 118.505 326.167 117.396 324.814 117.396H113.438C112.084 117.396 111.253 118.505 111.591 119.859L113.431 127.239C113.769 128.592 115.153 129.701 116.507 129.701H327.881C329.234 129.701 330.066 128.592 329.729 127.239Z" fill="#AFCDFB"/>
<path d="M263.279 117.394L266.339 129.7H116.507C115.153 129.7 113.769 128.591 113.431 127.238L111.591 119.858C111.253 118.504 112.084 117.395 113.438 117.395L263.279 117.394Z" fill="#D778E9"/>
<path d="M290.196 121.283L290.432 122.228H292.77L291.55 126.26H292.786L293.983 122.108L293.778 121.283H290.196Z" fill="#699DEE"/>
<path d="M296.579 121.199C295.256 121.199 294.642 122.33 295.002 123.771C295.362 125.213 296.518 126.345 297.848 126.345C299.178 126.345 299.783 125.215 299.423 123.771C299.063 122.328 297.9 121.199 296.579 121.199ZM297.614 125.357C296.953 125.357 296.354 124.682 296.125 123.771C295.897 122.861 296.156 122.187 296.809 122.187C297.463 122.187 298.069 122.87 298.3 123.771C298.53 124.673 298.276 125.357 297.614 125.357Z" fill="#699DEE"/>
<path d="M305.944 125.044C305.764 124.324 305.145 123.771 304.427 123.771C303.708 123.771 303.347 124.34 303.527 125.044C303.707 125.748 304.326 126.317 305.044 126.317C305.762 126.317 306.119 125.741 305.944 125.044ZM304.9 125.67C304.616 125.67 304.36 125.379 304.274 125.044C304.187 124.709 304.274 124.419 304.572 124.419C304.871 124.419 305.112 124.711 305.199 125.044C305.285 125.377 305.197 125.67 304.9 125.67Z" fill="#699DEE"/>
<path d="M303.664 121.283L301.271 126.26H302.117L304.51 121.283H303.664Z" fill="#699DEE"/>
<path d="M302.254 122.5C302.074 121.789 301.453 121.228 300.735 121.228C300.017 121.228 299.655 121.796 299.835 122.5C300.015 123.204 300.636 123.771 301.354 123.771C302.072 123.771 302.427 123.197 302.254 122.5ZM300.584 122.5C300.497 122.158 300.584 121.874 300.883 121.874C301.181 121.874 301.423 122.165 301.507 122.5C301.592 122.835 301.507 123.125 301.208 123.125C300.91 123.125 300.667 122.833 300.584 122.5Z" fill="#699DEE"/>
<path d="M253.375 183.035C254.912 183.035 255.847 181.791 255.463 180.256C255.08 178.72 253.525 177.475 251.989 177.475H128.738C127.202 177.475 126.266 178.72 126.65 180.256C127.033 181.791 128.588 183.035 130.124 183.035H253.375Z" fill="#AFCDFB"/>
<path d="M255.678 192.267C257.213 192.267 258.147 191.021 257.766 189.486C257.384 187.951 255.827 186.705 254.292 186.705H131.04C129.505 186.705 128.571 187.951 128.954 189.486C129.337 191.021 130.891 192.267 132.428 192.267H255.678Z" fill="#AFCDFB"/>
<path d="M260.168 199.127C259.785 197.591 258.23 196.346 256.694 196.346H133.443C131.908 196.346 130.972 197.591 131.355 199.127C131.738 200.662 133.294 201.908 134.829 201.908H258.082C259.618 201.908 260.552 200.662 260.168 199.127Z" fill="#AFCDFB"/>
<path d="M185.929 168.032C186.41 169.961 188.365 171.525 190.296 171.525H204.043C205.972 171.525 207.148 169.961 206.665 168.032L200.021 141.379C199.539 139.449 197.584 137.88 195.66 137.88H181.908C179.978 137.88 178.803 139.444 179.284 141.374L185.929 168.032Z" fill="#AFCDFB"/>
<path d="M209.723 168.031C210.204 169.961 212.159 171.525 214.088 171.525H227.837C229.766 171.525 230.94 169.961 230.459 168.031L223.814 141.379C223.333 139.449 221.378 137.885 219.449 137.885H205.7C203.771 137.885 202.597 139.449 203.078 141.379L209.723 168.031Z" fill="#AFCDFB"/>
<path d="M233.073 168.031C233.554 169.961 235.509 171.525 237.438 171.525H251.185C253.116 171.525 254.29 169.961 253.809 168.031L247.164 141.379C246.683 139.449 244.728 137.885 242.799 137.885H229.05C227.121 137.885 225.945 139.449 226.428 141.379L233.073 168.031Z" fill="#AFCDFB"/>
<path d="M181.269 165.668L175.802 143.742C174.996 140.508 171.72 137.88 168.48 137.88H121.943C118.703 137.88 116.739 140.502 117.547 143.737L123.014 165.663C123.82 168.903 127.096 171.52 130.331 171.52H176.872C180.108 171.525 182.075 168.903 181.269 165.668Z" fill="#AFCDFB"/>
<path d="M167.897 146.295C168.631 146.295 169.081 145.695 168.899 144.961C168.796 144.592 168.579 144.266 168.28 144.027C167.981 143.788 167.615 143.649 167.233 143.629H123.746C123.012 143.629 122.562 144.228 122.744 144.961C122.847 145.33 123.063 145.657 123.362 145.896C123.661 146.136 124.028 146.275 124.411 146.295H167.897Z" fill="#699DEE"/>
<path d="M169.177 151.423C169.909 151.423 170.359 150.823 170.177 150.089C170.074 149.72 169.857 149.394 169.558 149.155C169.259 148.916 168.893 148.776 168.511 148.757H125.024C124.29 148.757 123.84 149.356 124.024 150.089C124.126 150.458 124.342 150.785 124.641 151.024C124.94 151.264 125.306 151.403 125.689 151.423H169.177Z" fill="#699DEE"/>
<path d="M171.455 155.218C171.352 154.849 171.136 154.522 170.838 154.283C170.539 154.044 170.173 153.905 169.79 153.886H126.302C125.57 153.886 125.12 154.485 125.302 155.218C125.404 155.587 125.621 155.914 125.92 156.153C126.219 156.393 126.586 156.532 126.968 156.552H170.46C171.189 156.552 171.639 155.952 171.455 155.218Z" fill="#699DEE"/>
<path d="M137.995 159.627H127.735C127.001 159.627 126.551 160.228 126.734 160.961C126.837 161.33 127.053 161.657 127.352 161.896C127.651 162.136 128.017 162.275 128.399 162.295H138.659C139.392 162.295 139.844 161.695 139.66 160.961C139.557 160.592 139.341 160.265 139.042 160.026C138.744 159.787 138.377 159.647 137.995 159.627Z" fill="#699DEE"/>
<path d="M362.599 224.21L359.732 212.709C359.309 211.012 357.59 209.637 355.894 209.637H331.481C329.783 209.637 328.752 211.012 329.175 212.709L332.042 224.21C332.465 225.907 334.184 227.282 335.88 227.282H360.293C361.991 227.282 363.022 225.9 362.599 224.21Z" fill="#AFCDFB"/>
<path d="M355.586 214.049C355.672 214.052 355.758 214.035 355.836 213.998C355.914 213.961 355.982 213.906 356.033 213.837C356.085 213.768 356.119 213.687 356.132 213.602C356.146 213.517 356.138 213.43 356.11 213.348C356.056 213.155 355.943 212.984 355.786 212.858C355.63 212.733 355.438 212.66 355.237 212.65H332.426C332.34 212.646 332.254 212.663 332.176 212.7C332.098 212.736 332.03 212.791 331.979 212.86C331.927 212.929 331.893 213.01 331.88 213.095C331.866 213.18 331.874 213.267 331.902 213.348C331.956 213.542 332.069 213.714 332.226 213.839C332.382 213.965 332.574 214.038 332.775 214.049H355.586Z" fill="#699DEE"/>
<path d="M356.256 216.738C356.342 216.741 356.428 216.724 356.506 216.688C356.583 216.651 356.651 216.596 356.703 216.527C356.755 216.458 356.789 216.378 356.803 216.293C356.816 216.208 356.809 216.121 356.781 216.039C356.727 215.845 356.614 215.674 356.457 215.548C356.3 215.422 356.107 215.349 355.907 215.339H333.097C333.012 215.337 332.927 215.356 332.85 215.394C332.773 215.431 332.707 215.486 332.655 215.555C332.604 215.623 332.57 215.703 332.555 215.787C332.54 215.871 332.546 215.958 332.571 216.039C332.626 216.232 332.74 216.404 332.897 216.529C333.054 216.654 333.246 216.727 333.446 216.738H356.256Z" fill="#699DEE"/>
<path d="M357.451 218.729C357.397 218.535 357.284 218.363 357.128 218.238C356.971 218.112 356.779 218.039 356.578 218.028H333.769C333.683 218.027 333.599 218.046 333.522 218.083C333.445 218.121 333.378 218.176 333.327 218.244C333.276 218.313 333.241 218.392 333.227 218.476C333.212 218.561 333.218 218.647 333.243 218.729C333.297 218.922 333.41 219.093 333.567 219.218C333.724 219.344 333.916 219.417 334.116 219.427H356.927C357.013 219.431 357.099 219.414 357.177 219.377C357.255 219.341 357.323 219.286 357.374 219.217C357.426 219.148 357.46 219.067 357.473 218.982C357.487 218.897 357.479 218.81 357.451 218.729Z" fill="#699DEE"/>
<path d="M339.901 221.04H334.519C334.434 221.039 334.349 221.057 334.272 221.095C334.195 221.132 334.129 221.187 334.077 221.256C334.026 221.324 333.992 221.404 333.977 221.488C333.963 221.572 333.968 221.659 333.994 221.74C334.048 221.934 334.162 222.105 334.319 222.23C334.475 222.356 334.668 222.429 334.868 222.439H340.249C340.335 222.443 340.42 222.426 340.498 222.389C340.576 222.352 340.644 222.297 340.696 222.228C340.748 222.159 340.782 222.079 340.795 221.994C340.809 221.909 340.802 221.822 340.774 221.74C340.72 221.547 340.607 221.375 340.45 221.25C340.294 221.124 340.102 221.051 339.901 221.04Z" fill="#699DEE"/>
<path d="M193.32 215.794C193.9 215.794 194.251 215.324 194.107 214.745C194.025 214.455 193.855 214.198 193.62 214.011C193.385 213.823 193.097 213.713 192.796 213.697H146.306C145.726 213.697 145.374 214.165 145.518 214.745C145.599 215.035 145.769 215.292 146.004 215.48C146.239 215.669 146.527 215.778 146.828 215.794H193.32Z" fill="#D778E9"/>
<path d="M194.186 219.276C194.766 219.276 195.118 218.806 194.974 218.228C194.893 217.938 194.723 217.681 194.488 217.493C194.253 217.304 193.965 217.195 193.664 217.179H147.174C146.594 217.179 146.241 217.649 146.385 218.228C146.467 218.518 146.637 218.775 146.872 218.962C147.107 219.15 147.395 219.26 147.696 219.276H194.186Z" fill="#D778E9"/>
<path d="M194.569 220.814H148.079C147.501 220.814 147.148 221.284 147.292 221.864C147.374 222.153 147.544 222.41 147.779 222.598C148.014 222.786 148.302 222.896 148.603 222.911H195.093C195.673 222.911 196.024 222.443 195.88 221.864C195.799 221.574 195.628 221.317 195.393 221.128C195.158 220.94 194.87 220.83 194.569 220.814Z" fill="#D778E9"/>
<path d="M253.316 215.794C253.894 215.794 254.247 215.324 254.103 214.745C254.021 214.455 253.851 214.198 253.616 214.011C253.381 213.823 253.093 213.713 252.792 213.697H206.302C205.722 213.697 205.371 214.165 205.515 214.745C205.596 215.035 205.767 215.292 206.002 215.48C206.237 215.669 206.525 215.778 206.826 215.794H253.316Z" fill="#D778E9"/>
<path d="M254.184 219.276C254.763 219.276 255.114 218.806 254.97 218.228C254.889 217.938 254.719 217.681 254.484 217.493C254.249 217.304 253.96 217.195 253.66 217.179H207.169C206.592 217.179 206.239 217.649 206.383 218.228C206.464 218.518 206.635 218.775 206.87 218.962C207.105 219.15 207.393 219.26 207.693 219.276H254.184Z" fill="#D778E9"/>
<path d="M254.567 220.814H208.08C207.501 220.814 207.15 221.284 207.294 221.864C207.375 222.153 207.545 222.41 207.78 222.598C208.015 222.786 208.303 222.896 208.604 222.911H255.093C255.672 222.911 256.025 222.443 255.881 221.864C255.799 221.573 255.629 221.316 255.393 221.127C255.157 220.939 254.868 220.83 254.567 220.814Z" fill="#D778E9"/>
<path d="M311.467 215.794C312.045 215.794 312.397 215.324 312.253 214.745C312.172 214.455 312.002 214.198 311.767 214.011C311.532 213.823 311.244 213.713 310.943 213.697H264.453C263.873 213.697 263.522 214.165 263.666 214.745C263.747 215.035 263.917 215.292 264.153 215.48C264.388 215.669 264.676 215.778 264.976 215.794H311.467Z" fill="#D778E9"/>
<path d="M312.334 219.276C312.914 219.276 313.267 218.806 313.121 218.228C313.04 217.938 312.869 217.681 312.634 217.493C312.399 217.304 312.111 217.195 311.81 217.179H265.32C264.74 217.179 264.388 217.649 264.532 218.228C264.613 218.518 264.784 218.775 265.019 218.962C265.254 219.15 265.542 219.26 265.842 219.276H312.334Z" fill="#D778E9"/>
<path d="M314.028 221.864C313.947 221.574 313.777 221.317 313.542 221.128C313.307 220.94 313.018 220.83 312.718 220.814H266.22C265.642 220.814 265.29 221.284 265.434 221.864C265.515 222.153 265.685 222.41 265.92 222.598C266.155 222.786 266.443 222.896 266.744 222.911H313.234C313.819 222.911 314.172 222.443 314.028 221.864Z" fill="#D778E9"/>
<path d="M323.023 228.871H143.743C142.159 228.871 140.549 227.587 140.157 226.011L136.577 211.652C136.471 211.276 136.453 210.881 136.523 210.497C136.593 210.113 136.75 209.75 136.982 209.436C137.215 209.145 137.513 208.913 137.852 208.756C138.191 208.6 138.562 208.525 138.935 208.536H318.215C319.799 208.536 321.406 209.82 321.8 211.396L325.381 225.755C325.486 226.131 325.505 226.526 325.434 226.91C325.364 227.294 325.206 227.657 324.974 227.971C324.741 228.262 324.443 228.495 324.104 228.651C323.766 228.807 323.395 228.882 323.023 228.871ZM138.933 209.589C138.72 209.58 138.508 209.619 138.313 209.705C138.118 209.791 137.945 209.921 137.808 210.084C137.674 210.272 137.585 210.488 137.547 210.716C137.51 210.944 137.526 211.178 137.594 211.398L141.174 225.757C141.453 226.875 142.628 227.82 143.741 227.82H323.021C323.234 227.829 323.446 227.79 323.64 227.704C323.835 227.618 324.008 227.488 324.144 227.325C324.278 227.137 324.367 226.921 324.404 226.693C324.442 226.465 324.426 226.231 324.358 226.011L320.778 211.652C320.499 210.534 319.324 209.589 318.213 209.589H138.933Z" fill="#D778E9"/>
<path d="M145.141 61.2118C145.127 61.1147 145.076 61.0271 144.997 60.9681C144.919 60.9091 144.821 60.8834 144.724 60.8968L140.704 61.4584C140.633 60.8069 140.41 60.1812 140.053 59.6316C139.696 59.082 139.215 58.6238 138.649 58.294L138.406 58.1518C137.813 57.8094 137.145 57.6173 136.462 57.5922C135.778 57.5671 135.098 57.7098 134.482 58.0078L132.892 54.0244C132.874 53.9793 132.848 53.9383 132.814 53.9036C132.78 53.8688 132.74 53.8411 132.695 53.822C132.651 53.8028 132.603 53.7927 132.554 53.792C132.506 53.7914 132.458 53.8003 132.413 53.8183C132.367 53.8362 132.326 53.8629 132.292 53.8967C132.257 53.9306 132.229 53.9709 132.21 54.0154C132.191 54.06 132.181 54.1079 132.18 54.1563C132.18 54.2048 132.188 54.2529 132.206 54.298L133.839 58.3912C133.578 58.5789 133.339 58.7964 133.128 59.0392C132.957 59.2353 132.805 59.4474 132.674 59.6728L132.233 60.4342L128.538 58.285C128.453 58.2358 128.352 58.2223 128.258 58.2474C128.163 58.2726 128.082 58.3343 128.033 58.4191C127.984 58.5038 127.97 58.6046 127.996 58.6993C128.021 58.794 128.082 58.8748 128.167 58.924L131.863 61.0696L131.612 61.5016C131.379 61.9032 131.215 62.3414 131.126 62.7976L126.074 63.505C125.976 63.5116 125.886 63.5567 125.822 63.6303C125.757 63.7039 125.725 63.8 125.732 63.8974C125.739 63.9947 125.784 64.0855 125.857 64.1496C125.931 64.2138 126.027 64.246 126.124 64.2394H126.175L131.049 63.5572C131.04 64.2998 131.228 65.0315 131.594 65.6778C131.96 66.3241 132.49 66.8619 133.132 67.2364L133.375 67.3786C133.992 67.7348 134.69 67.9282 135.403 67.9404C136.116 67.9527 136.82 67.7835 137.45 67.4488L139.181 71.794C139.209 71.8625 139.257 71.9213 139.318 71.9626C139.379 72.004 139.451 72.0261 139.525 72.0262C139.586 72.0284 139.647 72.015 139.701 71.9873C139.756 71.9597 139.802 71.9186 139.836 71.868C139.871 71.8175 139.891 71.759 139.897 71.6982C139.902 71.6374 139.892 71.5762 139.867 71.5204L138.08 67.0384C138.494 66.7135 138.842 66.3128 139.106 65.8576L139.356 65.4256L143.051 67.573C143.136 67.6221 143.236 67.6357 143.331 67.6107C143.426 67.5858 143.506 67.5243 143.555 67.4398C143.605 67.3553 143.618 67.2547 143.593 67.1602C143.568 67.0657 143.507 66.9849 143.422 66.9358L139.727 64.7884L140.168 64.0288C140.299 63.8027 140.409 63.5654 140.497 63.3196C140.623 62.9603 140.699 62.5853 140.722 62.2054L144.826 61.6312C144.874 61.6243 144.921 61.608 144.963 61.5833C145.005 61.5585 145.041 61.5257 145.071 61.4867C145.1 61.4478 145.121 61.4034 145.133 61.3563C145.145 61.3091 145.148 61.26 145.141 61.2118Z" fill="#AFCDFB"/>
<path d="M140.168 64.0251L139.106 65.8539C138.545 66.8113 137.629 67.5084 136.556 67.7933C135.484 68.0782 134.342 67.9278 133.38 67.3749L133.137 67.2327C132.178 66.6722 131.479 65.7546 131.195 64.6806C130.91 63.6066 131.062 62.4636 131.618 61.5015L132.68 59.6709C132.809 59.4464 132.959 59.2348 133.128 59.0391L140.497 63.3177C140.409 63.5629 140.299 63.7996 140.168 64.0251Z" fill="#E57970"/>
<path d="M60.8652 109.375L56.2212 108.057C56.2162 107.532 56.1111 107.012 55.9116 106.526L55.7226 106.063L59.6826 104.443C59.7731 104.406 59.8451 104.335 59.8829 104.245C59.9207 104.154 59.9212 104.053 59.8842 103.962C59.8472 103.872 59.7758 103.8 59.6857 103.762C59.5955 103.724 59.4941 103.724 59.4036 103.761L55.4436 105.381L55.1106 104.567C55.012 104.326 54.8915 104.095 54.7506 103.876C54.5426 103.556 54.2912 103.267 54.0036 103.016L56.052 99.4157C56.0756 99.3736 56.0908 99.3273 56.0965 99.2793C56.1022 99.2314 56.0985 99.1829 56.0854 99.1364C56.0724 99.0899 56.0503 99.0465 56.0205 99.0085C55.9907 98.9706 55.9537 98.9389 55.9116 98.9153C55.8695 98.8916 55.8232 98.8765 55.7753 98.8708C55.7274 98.865 55.6788 98.8688 55.6323 98.8818C55.5859 98.8949 55.5424 98.9169 55.5045 98.9468C55.4665 98.9766 55.4348 99.0136 55.4112 99.0557L53.4042 102.584C52.8443 102.243 52.2124 102.038 51.5591 101.986C50.9058 101.933 50.2493 102.034 49.6422 102.281L49.383 102.389C48.7498 102.65 48.1901 103.061 47.753 103.588C47.3159 104.115 47.0146 104.741 46.8756 105.411L42.7482 104.241C42.7016 104.228 42.6529 104.225 42.6049 104.23C42.5569 104.236 42.5104 104.251 42.4682 104.275C42.426 104.298 42.3889 104.33 42.3589 104.368C42.329 104.406 42.3068 104.45 42.2937 104.496C42.2806 104.543 42.2768 104.591 42.2825 104.639C42.2882 104.687 42.3033 104.734 42.3269 104.776C42.3506 104.818 42.3823 104.855 42.4203 104.885C42.4583 104.915 42.5018 104.938 42.5484 104.951L46.7874 106.153C46.7756 106.474 46.8015 106.796 46.8648 107.111C46.9162 107.366 46.9921 107.617 47.0916 107.858L47.4246 108.671L43.4646 110.291C43.3851 110.323 43.3193 110.382 43.2785 110.458C43.2377 110.533 43.2245 110.621 43.2411 110.705C43.2578 110.789 43.3032 110.865 43.3696 110.919C43.436 110.973 43.5192 111.003 43.605 111.002C43.6533 111.002 43.701 110.992 43.7454 110.973L47.7054 109.353L47.8944 109.816C48.0703 110.246 48.3174 110.643 48.6252 110.991L46.1052 115.427C46.0811 115.469 46.0654 115.515 46.0592 115.563C46.0531 115.611 46.0564 115.66 46.0691 115.707C46.0818 115.754 46.1036 115.798 46.1333 115.836C46.163 115.874 46.1999 115.907 46.242 115.931C46.2839 115.956 46.3304 115.972 46.3789 115.979C46.4273 115.986 46.4767 115.983 46.5238 115.97C46.571 115.957 46.615 115.934 46.6532 115.904C46.6914 115.873 46.723 115.835 46.746 115.792L49.1778 111.513C49.7607 111.973 50.4551 112.27 51.1902 112.375C51.9253 112.479 52.6749 112.387 53.3628 112.107L53.6238 111.999C54.283 111.727 54.8618 111.291 55.3055 110.732C55.7493 110.174 56.0434 109.512 56.16 108.808L60.66 110.084C60.6927 110.094 60.7267 110.099 60.7608 110.099C60.8563 110.112 60.9532 110.087 61.0301 110.029C61.1071 109.971 61.1578 109.885 61.1712 109.789C61.1846 109.694 61.1595 109.597 61.1014 109.52C61.0433 109.443 60.9571 109.392 60.8616 109.379L60.8652 109.375Z" fill="#AFCDFB"/>
<path d="M55.1106 104.567L55.9116 106.526C56.3301 107.555 56.3242 108.708 55.8952 109.732C55.4662 110.757 54.6489 111.57 53.622 111.994L53.361 112.102C52.3317 112.52 51.1788 112.513 50.1542 112.084C49.1296 111.655 48.3166 110.837 47.8926 109.811L47.0898 107.852C46.9903 107.611 46.9144 107.361 46.863 107.105L54.7488 103.876C54.8903 104.095 55.0114 104.326 55.1106 104.567Z" fill="#E57970"/>
<path d="M107.438 241.898C107.41 241.918 107.377 241.945 107.336 241.976C105.79 243.16 95.2758 250.33 71.658 247.154C71.4972 248.062 71.3466 248.962 71.2062 249.854C71.136 250.299 71.0658 250.742 70.9992 251.181C70.9326 251.62 70.8696 252.047 70.8084 252.477V252.5C70.7472 252.932 70.686 253.361 70.6284 253.789C70.5708 254.218 70.5132 254.644 70.461 255.073C70.4088 255.501 70.3566 255.911 70.3062 256.333V256.352C70.2594 256.77 70.2108 257.184 70.1676 257.596C70.1244 258.008 70.0794 258.422 70.038 258.835C69.9966 259.247 69.957 259.654 69.921 260.06C69.885 260.467 69.8472 260.869 69.8148 261.272C69.7896 261.565 69.7662 261.857 69.7446 262.148C69.7248 262.39 69.7068 262.631 69.6924 262.868C69.6762 263.072 69.6636 263.275 69.6492 263.48C69.6492 263.587 69.6348 263.693 69.6294 263.801C69.6078 264.141 69.5862 264.481 69.5682 264.82C69.5502 265.158 69.5286 265.54 69.5106 265.9C69.5106 265.97 69.5106 266.038 69.5016 266.108C69.4908 266.378 69.4782 266.648 69.4674 266.911C69.4674 267.124 69.4494 267.332 69.4458 267.543C69.4224 268.22 69.4044 268.886 69.3936 269.548C69.3936 269.852 69.3828 270.155 69.381 270.448C69.381 270.808 69.381 271.156 69.381 271.505V271.588C69.381 271.931 69.381 272.272 69.381 272.61C69.381 272.893 69.381 273.172 69.3918 273.451C69.3918 273.69 69.3918 273.928 69.4062 274.171V274.421C69.4062 274.669 69.4206 274.914 69.4278 275.159C69.435 275.404 69.4458 275.684 69.4548 275.944C69.4638 276.203 69.48 276.505 69.4944 276.782C69.5088 277.108 69.525 277.43 69.5448 277.753V277.841C69.5628 278.159 69.5826 278.473 69.6042 278.786C69.6258 279.099 69.651 279.445 69.6762 279.769C69.7014 280.093 69.7284 280.418 69.7572 280.739C69.786 281.059 69.813 281.381 69.8454 281.696C69.8778 282.011 69.9066 282.299 69.939 282.596C69.939 282.632 69.948 282.668 69.9498 282.704C69.9822 282.996 70.0146 283.284 70.0506 283.572C70.0866 283.86 70.1244 284.179 70.164 284.483C70.164 284.483 70.164 284.497 70.164 284.506C70.2036 284.805 70.2414 285.102 70.2846 285.406C70.3278 285.71 70.3692 285.998 70.4142 286.294C70.4142 286.294 70.4142 286.308 70.4142 286.317C70.4592 286.605 70.5042 286.889 70.5492 287.174C70.5508 287.179 70.5508 287.184 70.5492 287.188C70.596 287.48 70.6446 287.764 70.695 288.05C70.7454 288.337 70.7958 288.626 70.848 288.909C70.9104 289.258 70.9758 289.604 71.0442 289.948C71.0874 290.162 71.1288 290.376 71.172 290.588C71.2278 290.857 71.2836 291.128 71.3394 291.38C71.3394 291.415 71.3556 291.449 71.3628 291.483C71.415 291.73 71.4708 291.978 71.5266 292.219C71.586 292.489 71.649 292.759 71.7066 293.018C71.8362 293.558 71.9694 294.098 72.1098 294.626C72.171 294.869 72.2358 295.105 72.3024 295.346C72.369 295.587 72.4392 295.841 72.5094 296.086C72.5598 296.266 72.612 296.446 72.6642 296.626C72.7164 296.806 72.7668 296.986 72.8226 297.155C72.8622 297.293 72.9054 297.43 72.9486 297.569C73.0224 297.81 73.098 298.049 73.1718 298.289C73.3266 298.763 73.4838 299.23 73.6434 299.691C73.7208 299.921 73.8018 300.15 73.8828 300.375C73.9638 300.6 74.0466 300.827 74.1294 301.048C74.355 301.657 74.586 302.252 74.8224 302.836C74.8926 303.016 74.9646 303.183 75.0366 303.356C75.141 303.604 75.2436 303.851 75.3498 304.096C75.4326 304.286 75.5154 304.477 75.6018 304.666C76.0566 305.692 76.5258 306.675 77.0094 307.615C77.1048 307.795 77.2002 307.975 77.2956 308.155C77.5242 308.587 77.7528 309.008 77.985 309.415C78.0642 309.56 78.1488 309.706 78.2316 309.85C78.3144 309.994 78.3846 310.117 78.462 310.248L78.7302 310.705C78.9372 311.049 79.1442 311.387 79.3548 311.719C79.425 311.834 79.4988 311.949 79.5708 312.061C79.7976 312.421 80.0262 312.767 80.2566 313.101C80.3376 313.225 80.4186 313.344 80.5014 313.461C81.0402 314.246 81.5802 314.985 82.1214 315.679C82.2204 315.808 82.3212 315.936 82.422 316.062C82.9416 316.718 83.4558 317.337 83.9646 317.918C84.1266 318.098 84.2886 318.278 84.4506 318.458C84.4647 318.471 84.4779 318.486 84.4902 318.501C84.5874 318.605 84.6828 318.713 84.78 318.814C85.356 319.437 85.9194 320.008 86.463 320.531C86.553 320.618 86.643 320.711 86.7348 320.789C86.9148 320.969 87.0948 321.122 87.2658 321.28C87.4368 321.439 87.597 321.581 87.7572 321.721L87.7806 321.743C87.9408 321.881 88.0974 322.018 88.2504 322.148C88.5144 322.373 88.7712 322.586 89.0208 322.785L89.2278 322.949C89.6796 323.309 90.1026 323.624 90.4878 323.899L90.8262 324.139C91.1502 324.362 91.4436 324.554 91.701 324.716C91.7784 324.769 91.8522 324.814 91.9242 324.859C92.0844 324.954 92.223 325.039 92.3472 325.112L92.4282 325.157L92.5056 325.204C92.7918 325.368 92.9466 325.444 92.9466 325.444C94.455 324.952 95.9166 324.412 97.3314 323.824C106.263 320.085 113.328 314.408 118.919 307.831C118.935 307.814 118.949 307.796 118.962 307.777C130.997 293.591 136.172 275.233 138.382 263.077C138.623 261.731 138.834 260.462 139.01 259.283C115.286 253.881 108.18 243.128 107.438 241.898Z" fill="#588FE0"/>
<path d="M135 264.892C132.986 275.973 128.268 292.711 117.297 305.644L117.257 305.693C112.16 311.69 105.719 316.865 97.5763 320.273C96.2875 320.814 94.9549 321.308 93.5785 321.756C93.5785 321.756 93.4363 321.687 93.1771 321.538L93.1051 321.495C93.0817 321.482 93.0565 321.47 93.0313 321.453C92.9197 321.389 92.7919 321.309 92.6479 321.221C92.5813 321.182 92.5147 321.14 92.4445 321.093C92.2087 320.946 91.9405 320.769 91.6453 320.566L91.3375 320.348C90.9775 320.096 90.5995 319.808 90.1873 319.482L90.0073 319.333C89.7805 319.151 89.5465 318.957 89.3053 318.752C89.1649 318.633 89.0227 318.509 88.8769 318.392L88.8553 318.372L88.4071 317.97C88.2469 317.826 88.0849 317.677 87.9229 317.522L87.6763 317.286C87.1795 316.806 86.6677 316.285 86.1409 315.722C86.0527 315.629 85.9609 315.531 85.8781 315.436L85.8403 315.396C85.6927 315.234 85.5451 315.069 85.3975 314.901C84.9343 314.372 84.4651 313.808 83.9899 313.209L83.7181 312.86C83.2273 312.227 82.7359 311.552 82.2439 310.837C82.1683 310.729 82.0945 310.621 82.0207 310.508C81.8107 310.199 81.6019 309.883 81.3943 309.559C81.3295 309.458 81.2629 309.354 81.1981 309.248C81.0073 308.945 80.8177 308.637 80.6293 308.322C80.5483 308.187 80.4655 308.047 80.3845 307.907C80.3035 307.766 80.2441 307.665 80.1739 307.547C80.1037 307.428 80.0227 307.284 79.9507 307.151C79.7383 306.773 79.5295 306.389 79.3207 305.997C79.2325 305.829 79.1407 305.666 79.0597 305.495C78.6223 304.64 78.1921 303.741 77.7763 302.807C77.6989 302.627 77.6233 302.46 77.5477 302.287C77.4505 302.064 77.3569 301.839 77.2615 301.612C77.1967 301.455 77.1301 301.297 77.0671 301.139C76.8511 300.607 76.6399 300.064 76.4335 299.51C76.3579 299.308 76.2841 299.101 76.2103 298.896C76.1365 298.691 76.0627 298.482 75.9907 298.271C75.8467 297.852 75.7027 297.425 75.5623 296.993C75.4939 296.777 75.4255 296.559 75.3589 296.34C75.3193 296.214 75.2797 296.088 75.2419 295.962C75.1915 295.802 75.1447 295.643 75.0979 295.479C75.0511 295.316 75.0025 295.155 74.9575 294.99C74.8927 294.767 74.8297 294.543 74.7685 294.317C74.7073 294.09 74.6497 293.885 74.5885 293.663C74.4625 293.183 74.3425 292.695 74.2285 292.198C74.1691 291.957 74.1133 291.716 74.0485 291.478C73.9837 291.24 73.9477 291.032 73.9009 290.808L73.8793 290.715C73.8271 290.475 73.7767 290.236 73.7263 289.995C73.6867 289.8 73.6489 289.606 73.6093 289.41C73.5481 289.098 73.4881 288.783 73.4293 288.465C73.3801 288.206 73.3333 287.945 73.2889 287.682C73.2439 287.421 73.1989 287.16 73.1575 286.895C73.1575 286.895 73.1575 286.895 73.1575 286.883C73.1161 286.623 73.0747 286.362 73.0351 286.101C73.0351 286.101 73.0351 286.085 73.0351 286.08C72.9937 285.81 72.9559 285.54 72.9181 285.27C72.8803 285 72.8443 284.73 72.8083 284.456C72.8083 284.447 72.8083 284.442 72.8083 284.435C72.7723 284.159 72.7399 283.882 72.7057 283.605C72.6715 283.328 72.6445 283.081 72.6157 282.813C72.6157 282.78 72.6157 282.748 72.6049 282.716C72.5743 282.442 72.5473 282.176 72.5203 281.893C72.4933 281.61 72.4627 281.313 72.4393 281.02C72.4159 280.727 72.3889 280.433 72.3655 280.136C72.3421 279.839 72.3205 279.542 72.2989 279.236C72.2773 278.93 72.2611 278.666 72.2449 278.376V278.295C72.2287 278.001 72.2125 277.708 72.1999 277.409C72.1873 277.157 72.1747 276.902 72.1639 276.646C72.1531 276.39 72.1459 276.171 72.1387 275.926C72.1315 275.681 72.1243 275.48 72.1189 275.253C72.1189 275.177 72.1189 275.102 72.1189 275.026C72.1189 274.81 72.1063 274.594 72.1045 274.374C72.1045 274.121 72.0955 273.867 72.0955 273.609C72.0955 273.3 72.0955 272.99 72.0955 272.677V272.601C72.0955 272.283 72.0955 271.962 72.0955 271.638C72.0955 271.365 72.0991 271.089 72.1063 270.812C72.1171 270.207 72.1315 269.601 72.1531 268.983C72.1531 268.793 72.1675 268.6 72.1729 268.407C72.1837 268.164 72.1945 267.921 72.2053 267.675C72.2053 267.61 72.2053 267.549 72.2053 267.495C72.2233 267.165 72.2395 266.834 72.2575 266.505C72.2755 266.175 72.2953 265.886 72.3151 265.574C72.3151 265.477 72.3259 265.38 72.3331 265.283C72.3439 265.103 72.3565 264.91 72.3709 264.725C72.3853 264.507 72.4015 264.287 72.4195 264.068C72.4393 263.801 72.4609 263.528 72.4843 263.268C72.5131 262.908 72.5455 262.532 72.5797 262.165C72.6139 261.798 72.6499 261.422 72.6859 261.047C72.7219 260.673 72.7615 260.295 72.8047 259.917C72.8479 259.539 72.8893 259.164 72.9325 258.785V258.765C72.9781 258.383 73.0249 258.001 73.0729 257.618C73.1215 257.228 73.1737 256.839 73.2259 256.448C73.2781 256.058 73.3321 255.667 73.3879 255.273V255.253C73.4419 254.861 73.5013 254.466 73.5679 254.07C73.6345 253.674 73.6921 253.266 73.7569 252.861C73.8847 252.051 74.0215 251.23 74.1691 250.404C95.7007 253.298 105.286 246.761 106.695 245.681L106.789 245.61C107.467 246.732 113.944 256.535 135.589 261.459C135.409 262.507 135.218 263.666 135 264.892Z" fill="#AFCDFB"/>
<path d="M106.866 245.506L93.1734 321.538C93.0312 321.457 92.853 321.358 92.6442 321.221C92.5776 321.181 92.511 321.14 92.4408 321.093C92.205 320.946 91.9368 320.769 91.6416 320.566L91.3338 320.348C90.9738 320.096 90.5958 319.808 90.1836 319.482L90.0036 319.333C89.7768 319.15 89.5428 318.957 89.3016 318.751C89.1612 318.633 89.019 318.508 88.8732 318.391L88.8516 318.372L88.4034 317.97C88.2432 317.826 88.0812 317.677 87.9192 317.522L87.6726 317.286C87.1758 316.806 86.664 316.285 86.1372 315.722C86.049 315.628 85.9572 315.531 85.8744 315.436L85.8366 315.396C85.689 315.234 85.5414 315.069 85.3938 314.901C84.9306 314.372 84.4614 313.808 83.9862 313.209L83.7144 312.86C83.2236 312.226 82.7322 311.552 82.2402 310.837C82.1646 310.729 82.0908 310.621 82.017 310.507C81.807 310.199 81.5982 309.883 81.3906 309.559C81.3258 309.458 81.2592 309.354 81.1944 309.247C81.0036 308.945 80.814 308.637 80.6256 308.322C80.5446 308.187 80.4618 308.047 80.3808 307.906C80.2998 307.766 80.2404 307.665 80.1702 307.546C80.1 307.428 80.019 307.284 79.947 307.15C79.7346 306.772 79.5258 306.389 79.317 305.997C79.2288 305.829 79.137 305.665 79.056 305.494C78.6186 304.639 78.1884 303.741 77.7726 302.807C77.6952 302.627 77.6196 302.46 77.544 302.287C77.4468 302.064 77.3532 301.839 77.2578 301.612C77.193 301.455 77.1264 301.297 77.0634 301.138C76.8474 300.607 76.6362 300.064 76.4298 299.509C76.3542 299.308 76.2804 299.101 76.2066 298.896C76.1328 298.69 76.059 298.482 75.987 298.271C75.843 297.852 75.699 297.425 75.5586 296.993C75.4902 296.777 75.4218 296.559 75.3552 296.34C75.3156 296.214 75.276 296.088 75.2382 295.962C75.1878 295.801 75.141 295.643 75.0942 295.479C75.0474 295.315 74.9988 295.155 74.9538 294.99C74.889 294.766 74.826 294.543 74.7648 294.316C74.7036 294.09 74.646 293.884 74.5848 293.663C74.4588 293.183 74.3388 292.695 74.2248 292.198C74.1654 291.957 74.1096 291.715 74.0448 291.478C73.98 291.24 73.944 291.031 73.8972 290.808L73.8756 290.715C73.8234 290.475 73.773 290.236 73.7226 289.995C73.683 289.8 73.6452 289.606 73.6056 289.41C73.5444 289.098 73.4844 288.783 73.4256 288.465C73.3764 288.205 73.3296 287.944 73.2852 287.682C73.2402 287.421 73.1952 287.16 73.1538 286.895C73.1538 286.895 73.1538 286.895 73.1538 286.882C73.1124 286.623 73.071 286.362 73.0314 286.101C73.0314 286.101 73.0314 286.085 73.0314 286.08C72.99 285.81 72.9522 285.54 72.9144 285.27C72.8766 285 72.8406 284.73 72.8046 284.456C72.8046 284.447 72.8046 284.442 72.8046 284.434C72.7686 284.159 72.7362 283.882 72.702 283.605C72.6678 283.327 72.6408 283.081 72.612 282.813C72.612 282.78 72.612 282.748 72.6012 282.715C72.5706 282.442 72.5436 282.175 72.5166 281.893C72.4896 281.61 72.459 281.313 72.4356 281.02C72.4122 280.726 72.3852 280.433 72.3618 280.136C72.3384 279.839 72.3168 279.542 72.2952 279.236C72.2736 278.93 72.2574 278.665 72.2412 278.376V278.295C72.225 278.001 72.2088 277.708 72.1962 277.409C72.1836 277.157 72.171 276.901 72.1602 276.646C72.1494 276.39 72.1422 276.171 72.135 275.926C72.1278 275.681 72.1206 275.479 72.1152 275.253C72.1152 275.177 72.1152 275.101 72.1152 275.026C72.1152 274.81 72.1026 274.594 72.1008 274.374C72.1008 274.12 72.0918 273.867 72.0918 273.609C72.0918 273.3 72.0918 272.99 72.0918 272.677V272.601C72.0918 272.283 72.0918 271.962 72.0918 271.638C72.0918 271.365 72.0954 271.089 72.1026 270.812C72.1134 270.207 72.1278 269.601 72.1494 268.983C72.1494 268.792 72.1638 268.6 72.1692 268.407C72.18 268.164 72.1908 267.921 72.2016 267.675C72.2016 267.61 72.2016 267.549 72.2016 267.495C72.2196 267.165 72.2358 266.834 72.2538 266.505C72.2718 266.175 72.2916 265.885 72.3114 265.574C72.3114 265.477 72.3222 265.38 72.3294 265.282C72.3402 265.102 72.3528 264.91 72.3672 264.724C72.3816 264.507 72.3978 264.287 72.4158 264.067C72.4356 263.801 72.4572 263.527 72.4806 263.268C72.5094 262.908 72.5418 262.532 72.576 262.165C72.6102 261.798 72.6462 261.421 72.6822 261.047C72.7182 260.673 72.7578 260.295 72.801 259.917C72.8442 259.539 72.8856 259.164 72.9288 258.784V258.765C72.9744 258.383 73.0212 258.001 73.0692 257.618C73.1178 257.227 73.17 256.839 73.2222 256.448C73.2744 256.057 73.3284 255.667 73.3842 255.273V255.253C73.4382 254.86 73.4976 254.466 73.5642 254.07C73.6308 253.674 73.6884 253.266 73.7532 252.861C73.881 252.051 74.0178 251.23 74.1654 250.404C97.5834 253.528 106.866 245.506 106.866 245.506Z" fill="#699DEE"/>
</svg>
